<svg width="81" height="42" viewBox="5.5 31 81 42" fill="none" xmlns="http://www.w3.org/2000/svg">
<path d="M26.5821 62.6466C23.7356 62.6466 21.0058 61.5202 18.9931 59.5153C16.9803 57.5105 15.8496 54.7912 15.8496 51.9559C15.8496 49.1206 16.9803 46.4014 18.9931 44.3965C21.0058 42.3916 23.7356 41.2653 26.5821 41.2653C29.391 41.2852 32.085 42.3791 34.1074 44.321L41.5 37.0234C37.5128 33.1445 32.1553 30.9814 26.5821 31.0001C20.9908 31.0001 15.6285 33.2126 11.6748 37.1508C7.72114 41.0891 5.5 46.4305 5.5 52C5.5 57.5695 7.72114 62.9109 11.6748 66.8492C15.6285 70.7874 20.9908 72.9999 26.5821 72.9999C32.1553 73.0186 37.5128 70.8555 41.5 66.9766L34.1296 59.679C32.092 61.6006 29.3879 62.6637 26.5821 62.6466Z" fill="#1B3CF2"/>
<path d="M65.3387 31.0003C59.7779 31.015 54.4419 33.1913 50.4632 37.0673L50.371 37.133L35.5 51.9039L50.4589 66.7406L50.5423 66.8238C52.9902 69.2744 56.007 71.0836 59.3246 72.0907C62.6422 73.0977 66.1578 73.2714 69.5589 72.5963C72.96 71.9211 76.1412 70.4181 78.8197 68.2207C81.4983 66.0234 83.5912 63.1998 84.9124 60.001C86.2336 56.8022 86.7422 53.3273 86.393 49.8851C86.0438 46.443 84.8475 43.1402 82.9106 40.2705C80.9737 37.4007 78.3561 35.0528 75.2905 33.4356C72.225 31.8183 68.8064 30.9818 65.3387 31.0003ZM65.3387 62.5397C62.5494 62.5358 59.8717 61.4468 57.8746 59.5041L50.2086 51.9039L57.8571 44.3169C59.863 42.3878 62.535 41.3011 65.3211 41.2813C68.1444 41.2813 70.852 42.4002 72.8483 44.3919C74.8447 46.3837 75.9662 49.085 75.9662 51.9017C75.9662 54.7185 74.8447 57.4198 72.8483 59.4115C70.852 61.4033 68.1444 62.5222 65.3211 62.5222L65.3387 62.5397Z" fill="#1B3CF2"/>
</svg>
